<svg xmlns="http://www.w3.org/2000/svg" width="16" height="12" viewBox="0 0 16 12"><g><g><path fill="#293859" d="M12.13 7.338h1.04l.955 1.266-1.26 1.26A4.756 4.756 0 0 1 10.96 6.07c0-.437.063-.86.177-1.266a4.732 4.732 0 0 1 1.728-2.526l1.26 1.26-.956 1.266h-1.038a3.83 3.83 0 0 0-.222 1.266c0 .443.083.868.222 1.267zM9.694 9.87H2.096v-.633c0-1.266 2.532-1.963 3.799-1.963 1.266 0 3.798.697 3.798 1.963zM5.895 2.273c1.05 0 1.899.848 1.899 1.899 0 1.05-.848 1.9-1.9 1.9-1.05 0-1.899-.85-1.899-1.9 0-1.051.849-1.9 1.9-1.9zm8.863-1.9H2.096A1.27 1.27 0 0 0 .83 1.64v8.864c0 .697.57 1.266 1.266 1.266h12.662c.697 0 1.26-.57 1.26-1.266l.007-8.864A1.27 1.27 0 0 0 14.758.373z"/></g></g></svg>