<svg xmlns="http://www.w3.org/2000/svg" width="17" height="16" viewBox="0 0 17 16"><g><g><path fill="#293859" d="M8.473 13.437c2.984 0 5.465-2.427 5.465-5.41 0-1.448-.614-2.806-1.635-3.83a5.378 5.378 0 0 0-3.83-1.588A5.422 5.422 0 0 0 3.06 8.02c0 .957.25 1.889.724 2.708l-.768 2.806 2.87-.755c.79.43 1.68.66 2.588.66zm7.65-11.374V14.08c0 .904-.734 1.638-1.638 1.638H2.469A1.639 1.639 0 0 1 .83 14.08V2.063C.83 1.16 1.564.425 2.47.425h12.016c.904 0 1.638.734 1.638 1.638zm-5 7.892c.112-.314.112-.587.081-.652-.034-.054-.123-.088-.26-.157a22.277 22.277 0 0 0-.924-.44c-.123-.044-.215-.068-.304.068-.089.133-.348.44-.427.53-.078.092-.157.102-.293.033-.796-.399-1.318-.71-1.84-1.607-.14-.24.136-.219.396-.738.047-.088.024-.167-.01-.235-.035-.068-.304-.734-.417-1.004-.11-.263-.222-.228-.304-.232-.078-.003-.17-.003-.26-.003a.493.493 0 0 0-.361.17c-.126.137-.475.465-.475 1.13 0 .666.485 1.311.553 1.4.069.089.956 1.454 2.311 2.041.857.369 1.192.403 1.622.338.26-.037.799-.324.911-.642zm-2.646-6.43c1.201 0 2.328.467 3.181 1.32.85.85 1.369 1.98 1.369 3.182 0 2.481-2.072 4.499-4.55 4.499h-.004a4.487 4.487 0 0 1-2.29-.628l-.164-.1-1.703.448.454-1.66-.106-.17a4.48 4.48 0 0 1-.69-2.393 4.508 4.508 0 0 1 4.503-4.499z"/></g></g></svg>