<svg xmlns="http://www.w3.org/2000/svg" width="16" height="14" viewBox="0 0 16 14"><g><g><path fill="#293859" d="M16.025 4.396c0 .932-.972 1.689-2.17 1.689-1.112 0-2.026-.649-2.156-1.485L11.032.175h3.472l1.453 3.8c.044.134.068.274.068.421zm-3.377 2.572c.37.136.78.214 1.206.215.165 0 .324-.02.482-.042v5.36c0 .648-.532 1.18-1.182 1.18H3.698c-.649 0-1.18-.53-1.18-1.18V7.14c.158.022.317.04.482.04.43 0 .837-.075 1.206-.208v3.332h8.442V6.968zm-4.22-.883c-1.2 0-2.171-.757-2.171-1.689 0-.036.002-.07.003-.105L6.69.175h3.474l.43 4.12c0 .032.003.067.003.101 0 .932-.971 1.689-2.17 1.689zM5.153 4.607C5.02 5.44 4.106 6.085 3 6.085c-1.2 0-2.17-.757-2.17-1.689 0-.147.023-.287.068-.422L2.35.175h3.473l-.668 4.432z"/></g></g></svg>