<svg xmlns="http://www.w3.org/2000/svg" width="21" height="18" viewBox="0 0 21 18"><g><g><path fill="#293859" d="M14.353 14.331v1.333c0 .849-.689 1.538-1.538 1.538H1.538A1.538 1.538 0 0 1 0 15.664V14.33a4.307 4.307 0 0 1 4.306-4.306h.535a5.583 5.583 0 0 0 4.671 0h.535a4.307 4.307 0 0 1 4.306 4.306zM3.076 4.9a4.1 4.1 0 1 1 8.2 0 4.1 4.1 0 0 1-8.2 0zm17.428 3.076V9c0 .282-.23.513-.512.513h-2.05v2.05c0 .282-.232.513-.513.513h-1.026a.514.514 0 0 1-.512-.513v-2.05h-2.05A.514.514 0 0 1 13.327 9V7.975c0-.282.23-.513.512-.513h2.05v-2.05c0-.282.231-.513.513-.513h1.026c.281 0 .512.23.512.513v2.05h2.05c.282 0 .513.23.513.513z"/></g></g></svg>