<svg xmlns="http://www.w3.org/2000/svg" width="18" height="13" viewBox="0 0 18 13"><g><g><g><path fill="#293859" d="M13.019 2.527l-1.503-1.494a.626.626 0 0 0-1.068.492.656.656 0 0 0 .192.407l.715.71H4.317c-.93 0-1.802.363-2.463 1.025A3.44 3.44 0 0 0 .83 6.127v.715c0 .344.281.626.626.626a.628.628 0 0 0 .626-.626v-.716c0-.595.232-1.154.657-1.578a2.216 2.216 0 0 1 1.578-.658h6.949l-.715.711a.634.634 0 0 0-.193.39.628.628 0 0 0 .626.688.619.619 0 0 0 .443-.183l1.592-1.583a.967.967 0 0 0 .29-.693.997.997 0 0 0-.29-.693z"/></g><g><path fill="#293859" d="M17.374 6.394a.628.628 0 0 0-.626.626v.716c0 .595-.233 1.153-.657 1.578a2.216 2.216 0 0 1-1.579.658H7.564l.715-.711a.628.628 0 0 0-.434-1.082.619.619 0 0 0-.442.183L5.81 9.945a.967.967 0 0 0-.29.693c0 .264.102.51.29.693l1.502 1.493a.626.626 0 0 0 1.069-.492.656.656 0 0 0-.192-.406l-.716-.711h7.038A3.492 3.492 0 0 0 18 7.727V7.01a.626.626 0 0 0-.626-.617z"/></g></g></g></svg>