<svg xmlns="http://www.w3.org/2000/svg" width="17" height="13" viewBox="0 0 17 13"><g><g><path fill="#293859" d="M13.201 11.87c-.63 0-1.14-.51-1.14-1.14 0-.63.51-1.14 1.14-1.14.631 0 1.14.51 1.14 1.14 0 .63-.509 1.14-1.14 1.14zm1.14-6.838l1.49 1.9h-3.39v-1.9zM4.085 11.87c-.631 0-1.14-.51-1.14-1.14 0-.63.509-1.14 1.14-1.14.63 0 1.14.51 1.14 1.14 0 .63-.51 1.14-1.14 1.14zM14.72 3.893h-2.28V.853H1.806c-.835 0-1.52.684-1.52 1.52v8.357h1.52a2.276 2.276 0 0 0 2.28 2.28 2.276 2.276 0 0 0 2.279-2.28h4.558a2.276 2.276 0 0 0 2.28 2.28 2.276 2.276 0 0 0 2.279-2.28H17V6.932z"/></g></g></svg>