<svg xmlns="http://www.w3.org/2000/svg" width="16" height="13" viewBox="0 0 16 13"><g><g><path fill="#293859" d="M12.795 10.298H6.86c-.197 0-.357-.146-.357-.326v-.868c0-.18.16-.326.357-.326h5.935c.197 0 .356.146.356.326v.868c0 .18-.16.326-.356.326zm0-2.605H6.86c-.197 0-.357-.146-.357-.326V6.5c0-.18.16-.326.357-.326h5.935c.197 0 .356.146.356.326v.868c0 .18-.16.326-.356.326zm0-2.605H6.86c-.197 0-.357-.146-.357-.326v-.868c0-.18.16-.325.357-.325h5.935c.197 0 .356.145.356.325v.868c0 .18-.16.326-.356.326zm-7.004 4.45c0 .6-.531 1.085-1.187 1.085s-1.187-.486-1.187-1.085c0-.6.531-1.085 1.187-1.085s1.187.486 1.187 1.085zm0-2.605c0 .6-.531 1.085-1.187 1.085s-1.187-.485-1.187-1.085.531-1.085 1.187-1.085 1.187.486 1.187 1.085zm0-2.605c0 .6-.531 1.086-1.187 1.086s-1.187-.486-1.187-1.086c0-.6.531-1.085 1.187-1.085s1.187.486 1.187 1.085zm10.21 7.38v-9.55c0-.72-.639-1.303-1.425-1.303H2.23c-.787 0-1.425.583-1.425 1.303v9.55c0 .72.638 1.303 1.425 1.303h12.346c.786 0 1.424-.583 1.424-1.302z"/></g></g></svg>