<svg xmlns="http://www.w3.org/2000/svg" width="15" height="18" viewBox="0 0 15 18"><g><g><path fill="#293859" d="M10.721 4.126c0 .222-.18.401-.401.401H8.983a.401.401 0 0 1-.401-.4V2.788c0-.222.18-.401.4-.401h1.338c.221 0 .401.18.401.401zm0 3.21c0 .22-.18.4-.401.4H8.983a.401.401 0 0 1-.401-.4V5.997c0-.221.18-.401.4-.401h1.338c.221 0 .401.18.401.401zm0 3.208c0 .222-.18.401-.401.401H8.983a.401.401 0 0 1-.401-.4V9.206c0-.221.18-.401.4-.401h1.338c.221 0 .401.18.401.401zm-2.14 5.75H6.443v-2.808c0-.222.18-.401.401-.401h1.338c.221 0 .4.18.4.4zm-2.54-5.349H4.704a.401.401 0 0 1-.401-.4V9.206c0-.221.18-.401.401-.401h1.337c.222 0 .401.18.401.401v1.337c0 .222-.18.401-.4.401zM4.303 5.998c0-.221.18-.401.401-.401h1.337c.222 0 .401.18.401.401v1.337c0 .222-.18.401-.4.401H4.703a.401.401 0 0 1-.401-.4zm0-3.209c0-.222.18-.401.401-.401h1.337c.222 0 .401.18.401.401v1.337c0 .222-.18.401-.4.401H4.703a.401.401 0 0 1-.401-.4zm10.296 13.505h-.669V1.05a.802.802 0 0 0-.802-.802H1.896a.802.802 0 0 0-.802.802v15.243H.425a.401.401 0 0 0-.4.4v.67H15v-.67a.401.401 0 0 0-.401-.4z"/></g></g></svg>