<svg xmlns="http://www.w3.org/2000/svg" width="16" height="15" viewBox="0 0 16 15"><g><g><path fill="#293859" d="M14.48 9.692H2.326V5.134h3.86l-1.581 2.15 1.23.889L7.644 5.71l.76-1.033.76 1.033 1.808 2.462 1.23-.89-1.58-2.15h3.86zm0 3.799H2.326v-1.52H14.48zM6.124 2.095c.418 0 .76.342.76.76 0 .417-.342.76-.76.76a.762.762 0 0 1-.76-.76c0-.418.342-.76.76-.76zm4.559 0c.418 0 .76.342.76.76 0 .417-.342.76-.76.76a.762.762 0 0 1-.76-.76c0-.418.342-.76.76-.76zm3.799 1.52h-1.657c.084-.236.137-.495.137-.76A2.276 2.276 0 0 0 8.782 1.6l-.38.509-.38-.517A2.288 2.288 0 0 0 6.124.575a2.276 2.276 0 0 0-2.279 2.28c0 .265.053.524.137.76H2.325c-.844 0-1.512.675-1.512 1.519L.805 13.49c0 .843.676 1.52 1.52 1.52H14.48c.843 0 1.519-.677 1.519-1.52V5.134c0-.844-.676-1.52-1.52-1.52z"/></g></g></svg>