<svg xmlns="http://www.w3.org/2000/svg" width="21" height="25" viewBox="0 0 21 25"><g><g><path fill="#293859" d="M18.75 7.812c0 .573-.469 1.042-1.042 1.042H3.125a1.045 1.045 0 0 1-1.042-1.042V3.646c0-.573.469-1.042 1.042-1.042h14.583c.573 0 1.042.469 1.042 1.042zm0 4.688c0 .573-.469 1.042-1.042 1.042h-2.083a1.045 1.045 0 0 1-1.042-1.042v-.52c0-.574.47-1.043 1.042-1.043h2.083c.573 0 1.042.47 1.042 1.042zm0 4.167c0 .573-.469 1.041-1.042 1.041h-2.083a1.045 1.045 0 0 1-1.042-1.041v-.521c0-.573.47-1.042 1.042-1.042h2.083c.573 0 1.042.469 1.042 1.042zm0 4.166c0 .573-.469 1.042-1.042 1.042h-2.083a1.045 1.045 0 0 1-1.042-1.042v-.52c0-.573.47-1.042 1.042-1.042h2.083c.573 0 1.042.469 1.042 1.041zM12.5 12.5c0 .573-.469 1.042-1.042 1.042H9.375A1.045 1.045 0 0 1 8.333 12.5v-.52c0-.574.47-1.043 1.042-1.043h2.083c.573 0 1.042.47 1.042 1.042v.52zm0 4.167c0 .573-.469 1.041-1.042 1.041H9.375a1.045 1.045 0 0 1-1.042-1.041v-.521c0-.573.47-1.042 1.042-1.042h2.083c.573 0 1.042.469 1.042 1.042v.52zm0 4.166c0 .573-.469 1.042-1.042 1.042H9.375a1.045 1.045 0 0 1-1.042-1.042v-.52c0-.573.47-1.042 1.042-1.042h2.083c.573 0 1.042.469 1.042 1.041v.521zM6.25 12.5c0 .573-.469 1.042-1.042 1.042H3.125A1.045 1.045 0 0 1 2.083 12.5v-.52c0-.574.469-1.043 1.042-1.043h2.083c.573 0 1.042.47 1.042 1.042zm0 4.167c0 .573-.469 1.041-1.042 1.041H3.125a1.045 1.045 0 0 1-1.042-1.041v-.521c0-.573.469-1.042 1.042-1.042h2.083c.573 0 1.042.469 1.042 1.042zm0 4.166c0 .573-.469 1.042-1.042 1.042H3.125a1.045 1.045 0 0 1-1.042-1.042v-.52c0-.573.469-1.042 1.042-1.042h2.083c.573 0 1.042.469 1.042 1.041zM18.75 0H2.083A2.09 2.09 0 0 0 0 2.083v20.834A2.09 2.09 0 0 0 2.083 25H18.75a2.09 2.09 0 0 0 2.083-2.083V2.083A2.09 2.09 0 0 0 18.75 0z"/></g></g></svg>