<svg xmlns="http://www.w3.org/2000/svg" width="14.941" height="10.086" viewBox="0 0 14.941 10.086">
  <path id="Icon_zocial-email" data-name="Icon zocial-email" d="M.072,13.26v-8.3q0-.014.043-.274L5,8.866.13,13.548a1.221,1.221,0,0,1-.058-.288ZM.72,4.111a.621.621,0,0,1,.245-.043H14.12a.816.816,0,0,1,.259.043L9.48,8.3l-.648.519L7.55,9.874,6.267,8.823,5.619,8.3Zm.014,10L5.648,9.4l1.9,1.542L9.452,9.4l4.913,4.711a.692.692,0,0,1-.245.043H.965a.653.653,0,0,1-.231-.043ZM10.1,8.866l4.87-4.178a.86.86,0,0,1,.043.274v8.3a1.1,1.1,0,0,1-.043.288Z" transform="translate(-0.072 -4.068)" fill="#293859"/>
</svg>
