<svg xmlns="http://www.w3.org/2000/svg" width="223" height="185" viewBox="0 0 223 185"><g><g><g><path fill="#2f2e41" d="M11.042 176.267c3.073 5.698 9.594 8.144 9.594 8.144s1.539-6.792-1.533-12.49c-3.073-5.698-9.594-8.144-9.594-8.144s-1.539 6.792 1.533 12.49z"/></g><g><path fill="#293859" d="M13.154 174.392c5.547 3.337 7.684 9.966 7.684 9.966s-6.858 1.218-12.405-2.12C2.886 178.903.75 172.274.75 172.274s6.857-1.218 12.404 2.12z"/></g><g><path fill="#f2f2f2" d="M102.91 9.442v-.494h34.609v.494z"/></g><g><path fill="#f2f2f2" d="M127.63 13.892V9.319h.494v4.573z"/></g><g><path fill="#f2f2f2" d="M112.55 13.892V9.319h.495v4.573z"/></g><g><path fill="#f2f2f2" d="M120.461 33.174v-.494h34.61v.494z"/></g><g><path fill="#f2f2f2" d="M129.855 32.804V28.23h.494v4.574z"/></g><g><path fill="#f2f2f2" d="M144.935 32.804V28.23h.494v4.574z"/></g><g><path fill="#f2f2f2" d="M166.442 44.299v-.495h34.61v.495z"/></g><g><path fill="#f2f2f2" d="M175.836 43.928v-4.573h.494v4.573z"/></g><g><path fill="#f2f2f2" d="M190.916 43.928v-4.573h.494v4.573z"/></g><g><path fill="#f2f2f2" d="M162.981 159.004v-.494h34.61v.494z"/></g><g><path fill="#f2f2f2" d="M172.375 158.633v-4.573h.494v4.573z"/></g><g><path fill="#f2f2f2" d="M187.455 158.633v-4.573h.494v4.573z"/></g><g><path fill="#f2f2f2" d="M103.898 79.65v-.495h34.61v.495z"/></g><g><path fill="#f2f2f2" d="M113.292 79.28v-4.574h.494v4.573z"/></g><g><path fill="#f2f2f2" d="M128.372 79.28v-4.574h.494v4.573z"/></g><g><path fill="#f2f2f2" d="M114.775 139.227v-.494h34.61v.494z"/></g><g><path fill="#f2f2f2" d="M124.17 138.857v-4.574h.494v4.574z"/></g><g><path fill="#f2f2f2" d="M139.249 138.857v-4.574h.494v4.574z"/></g><g><path fill="#f2f2f2" d="M170.15 121.181v-.494h34.61v.494z"/></g><g><path fill="#f2f2f2" d="M179.544 120.81v-4.573h.494v4.573z"/></g><g><path fill="#f2f2f2" d="M194.624 120.81v-4.573h.494v4.573z"/></g><g><path fill="#2f2e41" d="M90.255 173.658H31.719v-.421h58.115v-20.425H36.64l-2.584-5.383.38-.182 2.469 5.144h53.35z"/></g><g><path fill="#3f3d56" d="M35.088 179.554a4.422 4.422 0 1 1 8.844 0 4.422 4.422 0 0 1-8.844 0z"/></g><g><path fill="#3f3d56" d="M78.674 179.554a4.422 4.422 0 1 1 8.844 0 4.422 4.422 0 0 1-8.844 0z"/></g><g><path fill="#3f3d56" d="M131.735 85.644a2.737 2.737 0 1 1 5.475 0 2.737 2.737 0 0 1-5.475 0z"/></g><g><path fill="#2f2e41" d="M17.054 99.75h93.549l-14.396 45.693H31.032zm94.037-.146l.086-.274H16.484l14.237 46.534h65.794z"/></g><g><path fill="#f2f2f2" d="M91.38 143.442H33.59l-12.505-41.27h83.172l-.076.243z"/></g><g><path fill="#2f2e41" d="M112.357 95.173l-.408-.108 2.78-10.474h16.164v.42h-15.84z"/></g><g><path fill="#2f2e41" d="M21.085 113.859v-.421h85.36v.42z"/></g><g><path fill="#2f2e41" d="M25.832 129.374v-.422h75.725v.422z"/></g><g><path fill="#2f2e41" d="M63.619 145.653V99.54h.421v46.113z"/></g><g transform="rotate(-86.249 81.595 122.6)"><path fill="#2f2e41" d="M58.488 122.808v-.421h46.21v.42z"/></g><g transform="rotate(-3.73 46.07 122.595)"><path fill="#2f2e41" d="M45.855 145.702v-46.21h.422v46.21z"/></g><g><path fill="#2f2e41" d="M.75 185v-.808h221.5V185z"/></g><g><path fill="#a0616a" d="M147.941 15.367s3.614 10.286 1.39 11.868c-2.224 1.583 7.506 14.505 7.506 14.505l11.675-3.164-6.393-10.813s-.834-10.813-.834-12.396c0-1.582-13.344 0-13.344 0z"/></g><g opacity=".47"><path fill="#f2f1d2" d="M147.941 15.367s3.614 10.286 1.39 11.868c-2.224 1.583 7.506 14.505 7.506 14.505l11.675-3.164-6.393-10.813s-.834-10.813-.834-12.396c0-1.582-13.344 0-13.344 0z"/></g><g><path fill="#2f2e41" d="M141.876 88.684s-1.055 13.187 0 20.044c1.055 6.857 2.637 25.845 2.637 25.845s0 35.868 5.802 36.395c5.802.527 10.022 1.055 10.55-1.055.527-2.11-2.638-3.165-1.056-4.22 1.583-1.054 2.11-4.747 0-8.966-2.11-4.22 0-46.944 0-46.944l10.022 26.9s1.055 22.154 2.11 25.318c1.055 3.165-1.055 8.967 2.637 9.494 3.692.528 7.912-2.637 10.022-3.692 2.11-1.055-3.165-1.055-2.11-1.582 1.055-.528 4.22-2.11 3.165-2.637-1.055-.528-2.11-25.846-2.11-25.846s-2.901-54.064-6.593-56.174c-3.692-2.11-6.066 1.524-6.066 1.524z"/></g><g><path fill="#2f2e41" d="M151.37 168.858v4.22s-4.747 11.47 0 11.47 8.44 1.19 8.44-.393v-14.242z"/></g><g><path fill="#2f2e41" d="M182.49 168.851v4.22s4.747 11.47 0 11.47-8.44 1.189-8.44-.394v-14.241z"/></g><g opacity=".97"><path fill="#d1b7a8" d="M145.832 13.521a9.494 9.494 0 1 1 18.988 0 9.494 9.494 0 0 1-18.988 0z"/></g><g><path fill="#3f3d56" d="M152.425 31.191s2.637 7.912 6.857 6.33l4.22-1.583 7.384 50.637s-5.802 8.439-14.241 3.164c-8.44-5.274-4.22-58.548-4.22-58.548z"/></g><g><path fill="#293859" d="M159.81 29.609l2.373-5.011s13.978 6.593 16.087 8.703c2.11 2.11 2.11 5.275 2.11 5.275l-3.692 13.186s1.055 29.01 1.055 30.065c0 1.055 3.692 6.857 1.055 4.748-2.637-2.11-3.165-4.22-5.275-1.055-2.11 3.164-6.857 6.857-6.857 6.857z"/></g><g><path fill="#c7a59b" d="M178.27 67.586l-1.582 14.769s-9.494 8.44-7.384 8.967c2.11.527 3.164-1.583 3.164-1.583s3.693 3.693 5.802 1.583c2.11-2.11 7.385-22.154 7.385-22.154z"/></g><g><path fill="#293859" d="M155.528.103c-2.105-.075-4.357-.112-6.132 1.022a8.978 8.978 0 0 0-2.119 2.074c-1.728 2.185-3.222 4.935-2.58 7.646l.746-.291c0 .723-.16 1.438-.471 2.092.105-.306.457.188.362.497l-.82 2.695c1.35-.495 3.03.507 3.235 1.93.094-3.13.418-6.719 2.957-8.552 1.28-.924 2.901-1.206 4.46-1.457 1.439-.23 2.947-.451 4.324.022 1.378.474 2.551 1.883 2.239 3.306.635-.219 1.345.224 1.66.818.313.594.33 1.295.34 1.966.676.479 1.447-.471 1.723-1.253.648-1.836 1.224-3.79.875-5.704-.35-1.915-1.91-3.745-3.856-3.751.236-.26.362-.601.351-.952l-1.604-.135a1.773 1.773 0 0 0 1.06-.559c-.644.709-5.708-1.377-6.75-1.414z"/></g><g><path fill="#293859" d="M155.062 28.026s-4.294-4.207-5.839-3.95c-1.545.258-3.655 3.95-3.655 3.95s-12.66 4.22-12.132 8.44c.528 4.22 6.33 24.79 6.33 24.79s4.747 24.791.527 27.428c-4.22 2.638 20.044 9.495 20.571 6.33.528-3.165 1.583-34.812 0-39.56-1.582-4.747-5.802-27.428-5.802-27.428z"/></g><g><path fill="#293859" d="M173.523 36.466h6.522s4.555 20.043 5.082 22.153c.528 2.11 1.583 12.132 1.055 12.132-.527 0-11.076-2.11-11.076-.528z"/></g><g><path fill="#f2f2f2" d="M173.302 86.1h-24.968c-2.436-11.208-2.64-22.038 0-32.384h24.968c-4.029 10.16-4.28 20.915 0 32.384z"/></g><g><path fill="#c7a59b" d="M138.183 72.333l7.385 3.165s14.241 2.11 14.241-3.692-14.241-2.638-14.241-2.638l-4.748-1.517z"/></g><g><path fill="#293859" d="M139.766 33.301l-6.33 1.583-4.747 27.955s-1.582 7.384 1.055 7.912c2.637.527 10.022 4.747 10.022 4.747s1.055-7.912 3.164-7.912l-5.274-4.22 3.165-18.46z"/></g><g><path fill="#f2f2f2" d="M15.644 87.808v-.495h34.61v.495z"/></g><g><path fill="#f2f2f2" d="M25.038 87.437v-4.573h.494v4.573z"/></g><g><path fill="#f2f2f2" d="M40.118 87.437v-4.573h.494v4.573z"/></g><g><path fill="#f2f2f2" d="M27.757 14.634v-.495h34.61v.495z"/></g><g><path fill="#f2f2f2" d="M52.478 19.083V14.51h.495v4.573z"/></g><g><path fill="#f2f2f2" d="M37.399 19.083V14.51h.494v4.573z"/></g><g><path fill="#f2f2f2" d="M62.614 63.334v-.494h34.61v.494z"/></g><g><path fill="#f2f2f2" d="M87.335 67.784V63.21h.494v4.574z"/></g><g><path fill="#f2f2f2" d="M72.255 67.784V63.21h.495v4.574z"/></g><g><path fill="#f2f2f2" d="M3.778 63.087v-.495h34.61v.495z"/></g><g><path fill="#f2f2f2" d="M28.499 67.537v-4.574h.494v4.574z"/></g><g><path fill="#f2f2f2" d="M13.42 67.537v-4.574h.494v4.574z"/></g><g><path fill="#f2f2f2" d="M45.31 38.366v-.495h34.609v.495z"/></g><g><path fill="#f2f2f2" d="M54.703 37.995v-4.573h.495v4.573z"/></g><g><path fill="#f2f2f2" d="M69.783 37.995v-4.573h.495v4.573z"/></g></g></g></svg>