<svg xmlns="http://www.w3.org/2000/svg" width="25.809" height="34.02" viewBox="0 0 25.809 34.02"><g transform="translate(25.809 25.02) rotate(180)"><rect width="25.208" height="33.031" rx="12.604" transform="translate(0.435 -9)" fill="#fff"/><path d="M3.346,4.346H24.462v8.212a10.558,10.558,0,1,1-21.116,0ZM1,2H26.809V12.558A12.9,12.9,0,1,1,1,12.558ZM13.075,16.891a1.173,1.173,0,0,0,1.659,0l4.977-4.977a1.173,1.173,0,1,0-1.659-1.659L13.9,14.4,9.757,10.255A1.173,1.173,0,1,0,8.1,11.914Z" transform="translate(-1 -0.442)" fill="#293859" fill-rule="evenodd"/></g></svg>