<svg xmlns="http://www.w3.org/2000/svg" width="14" height="16" viewBox="0 0 14 16"><g><g><path fill="#717b91" d="M1.925 14.01c-1.671-1.724-1.64-4.505.04-6.223l5.998-6.136a3.2 3.2 0 0 1 4.595 0 3.329 3.329 0 0 1 0 4.641l-5.23 5.344a2.134 2.134 0 0 1-3.087-.029c-.809-.857-.783-2.215.041-3.058l4.111-4.2a.458.458 0 0 1 .647-.007l.654.64c.18.177.184.467.007.648L5.59 9.828c-.142.145-.15.384-.02.523a.305.305 0 0 0 .45.005l5.229-5.343c.56-.574.56-1.508 0-2.082a1.372 1.372 0 0 0-1.978 0l-6 6.136c-.993 1.017-1.009 2.663-.033 3.67a2.439 2.439 0 0 0 3.52.007l4.92-5.033a.458.458 0 0 1 .647-.007l.654.64c.18.176.184.466.007.647l-4.92 5.033a4.267 4.267 0 0 1-6.142-.014z"/></g></g></svg>