<svg xmlns="http://www.w3.org/2000/svg" width="17.731" height="14.185" viewBox="0 0 17.731 14.185"><path d="M17.288,12.412H15.072V3.143a1.352,1.352,0,0,0-1.33-1.37h-3.1V3.546H13.3V14.185h3.99a.443.443,0,0,0,.443-.443v-.887A.443.443,0,0,0,17.288,12.412ZM8.651.028,3.331,1.406A.913.913,0,0,0,2.66,2.3V12.412H.443A.443.443,0,0,0,0,12.855v.887a.443.443,0,0,0,.443.443H9.752V.919a.894.894,0,0,0-1.1-.891ZM7.314,7.979c-.367,0-.665-.4-.665-.887s.3-.887.665-.887.665.4.665.887S7.681,7.979,7.314,7.979Z" transform="translate(0 0)" fill="#293859"/></svg>