<svg xmlns="http://www.w3.org/2000/svg" width="14.125" height="14.125" viewBox="0 0 14.125 14.125">
  <path id="Icon_ionic-logo-whatsapp" data-name="Icon ionic-logo-whatsapp" d="M9.441,2.25A6.908,6.908,0,0,0,2.506,9.131a6.81,6.81,0,0,0,1,3.553L2.25,16.375l3.839-1.22A6.946,6.946,0,0,0,16.375,9.131,6.908,6.908,0,0,0,9.441,2.25Zm3.448,9.494a1.791,1.791,0,0,1-1.226.791c-.325.017-.334.252-2.107-.518A7.235,7.235,0,0,1,6.632,9.252a3.4,3.4,0,0,1-.654-1.843,1.965,1.965,0,0,1,.675-1.442.679.679,0,0,1,.48-.2c.14,0,.23,0,.333,0s.258-.022.393.335.455,1.234.5,1.324a.321.321,0,0,1,0,.308,1.2,1.2,0,0,1-.188.286c-.093.1-.195.222-.277.3s-.188.176-.091.355A5.306,5.306,0,0,0,8.74,9.925a4.838,4.838,0,0,0,1.39.924c.174.095.278.084.385-.029s.462-.5.586-.667.242-.138.4-.073,1.014.522,1.188.616.29.143.331.218A1.456,1.456,0,0,1,12.889,11.744Z" transform="translate(-2.25 -2.25)" fill="#293859"/>
</svg>
